<svg width="17" height="20" viewBox="0 0 17 20" fill="none" xmlns="http://www.w3.org/2000/svg">
<path d="M16.7029 3.66418C16.7029 3.31934 16.6462 2.98059 16.5223 2.6632C16.4289 2.42637 16.2983 2.20301 16.1292 2.00402C15.8753 1.70496 15.5365 1.4657 15.1325 1.30762C14.7284 1.14891 14.2603 1.06836 13.7311 1.06836V2.10719C14.1077 2.10719 14.4159 2.15848 14.6631 2.24207C15.0336 2.36902 15.2649 2.55762 15.4224 2.79016C15.5786 3.0227 15.6629 3.31629 15.6641 3.66418C15.6647 4.11707 15.5146 4.65477 15.2106 5.1809C15.0098 5.53062 14.7291 5.96582 14.4111 6.43457L14.1651 6.26855V6.26793C13.5462 7.18039 12.7759 8.23203 12.1314 9.10117C11.8091 9.53695 11.5186 9.92699 11.2909 10.2346C11.1774 10.3884 11.0791 10.5221 11.0004 10.6332C10.9601 10.6881 10.9253 10.7382 10.8941 10.7833C10.863 10.8285 10.8368 10.8675 10.8093 10.9121C10.7751 10.9683 10.7135 11.0476 10.6311 11.1276C10.5065 11.2484 10.3362 11.3723 10.1336 11.4608C9.93039 11.5499 9.69723 11.6073 9.42625 11.6073C9.06613 11.6073 8.76891 11.5054 8.52781 11.3625C8.40758 11.2905 8.30383 11.2087 8.22141 11.1275C8.1384 11.0476 8.07734 10.9682 8.04316 10.9121C8.0157 10.8675 7.98945 10.8284 7.95832 10.7833C7.89973 10.6984 7.82711 10.5971 7.73797 10.4745C7.42668 10.0484 6.92133 9.3752 6.36285 8.61715C5.805 7.85848 5.19465 7.01559 4.68742 6.26789L4.44145 6.43453C4.12285 5.96516 3.84328 5.53121 3.64129 5.18086C3.33856 4.65473 3.18781 4.11703 3.1884 3.66414C3.1884 3.43219 3.22684 3.22406 3.29766 3.04281C3.35074 2.90672 3.42277 2.78586 3.51496 2.67723C3.65352 2.51547 3.83844 2.37816 4.10027 2.275C4.36027 2.17246 4.69719 2.10715 5.12141 2.10715V1.06836C4.6502 1.06836 4.22848 1.13184 3.85676 1.25816C3.29949 1.44434 2.85395 1.78063 2.56648 2.21094C2.2784 2.64062 2.14961 3.14781 2.14961 3.66418C2.15023 4.33984 2.36262 5.03992 2.74105 5.69969C2.96324 6.08543 3.25496 6.53648 3.58152 7.01867L3.33555 7.18531C3.9807 8.13441 4.75949 9.19703 5.40891 10.0741C5.73363 10.5117 6.02414 10.9018 6.24754 11.2045C6.35863 11.3552 6.45383 11.484 6.52523 11.5841C6.56063 11.6336 6.59055 11.6751 6.6125 11.7087C6.63449 11.741 6.65035 11.7648 6.65277 11.7685C6.76691 11.954 6.91035 12.1298 7.08246 12.2977C7.34063 12.5497 7.66719 12.7817 8.06207 12.9556C8.23176 13.0307 8.41547 13.093 8.60957 13.1405V16.2497C8.60957 16.5341 8.5473 16.8002 8.43258 17.0486C8.26168 17.4204 7.96566 17.7505 7.58113 17.9873C7.19723 18.2248 6.72785 18.3676 6.21457 18.3676C5.53035 18.3676 4.92305 18.1137 4.49461 17.7218C4.28039 17.5253 4.11129 17.2964 3.99656 17.0486C3.8818 16.8002 3.81957 16.5341 3.81957 16.2497V16.2326C4.29746 16.0898 4.72594 15.8316 5.06836 15.4886C5.60484 14.9527 5.93813 14.2068 5.9375 13.3896C5.93813 12.5705 5.60484 11.8252 5.06836 11.29C4.53246 10.7535 3.78785 10.4196 2.96938 10.4202C2.15027 10.4196 1.40566 10.7534 0.869141 11.29C0.333242 11.8252 0 12.5705 0 13.3896C0 14.2068 0.333242 14.9527 0.869141 15.4886C1.22805 15.8468 1.68152 16.1118 2.18687 16.2497C2.18625 16.7752 2.30406 17.2818 2.51523 17.7347C2.8302 18.4164 3.34957 18.9816 3.99047 19.3771C4.63137 19.7727 5.39793 20.0003 6.21461 20.0003C7.3041 19.9997 8.30262 19.5969 9.03625 18.9273C9.40309 18.5916 9.70457 18.1888 9.91453 17.7347C10.1251 17.2818 10.2429 16.7752 10.2423 16.2497V13.1399C10.5859 13.0557 10.896 12.9239 11.1627 12.7639C11.3959 12.6242 11.5979 12.4655 11.7694 12.2976C11.9428 12.1298 12.085 11.954 12.1991 11.7684C12.2021 11.7648 12.2174 11.741 12.24 11.7086C12.2821 11.647 12.3499 11.553 12.4335 11.437C12.7313 11.0287 13.241 10.3506 13.8043 9.58523C14.3689 8.81863 14.9872 7.96352 15.5164 7.18531L15.271 7.01867C15.597 6.53711 15.8887 6.08422 16.1115 5.69969C16.4899 5.03992 16.7023 4.33984 16.7029 3.66418ZM2.96941 15.4672C2.39324 15.4666 1.87688 15.2352 1.49969 14.8587C1.1225 14.4809 0.890547 13.9639 0.890547 13.3895C0.890547 12.8134 1.1225 12.297 1.49969 11.9186C1.87688 11.5432 2.39324 11.3113 2.96941 11.3107C3.54437 11.3113 4.06133 11.5432 4.43793 11.9186C4.81574 12.297 5.04707 12.8134 5.04766 13.3895C5.04703 13.9639 4.8157 14.4809 4.43793 14.8586C4.06133 15.2352 3.54437 15.4666 2.96941 15.4672Z" fill="white"/>
<path d="M7.44582 3.09729C7.5984 2.99049 7.68996 2.81529 7.68996 2.62854V0.571035C7.68996 0.384863 7.5984 0.209707 7.44582 0.103496C7.29324 -0.00392577 7.09793 -0.0289648 6.92273 0.0351367L5.67578 0.49291V2.70787L6.92273 3.16443C7.09789 3.22912 7.2932 3.20346 7.44582 3.09729Z" fill="white"/>
<path d="M11.4166 3.0973C11.5692 3.20351 11.7651 3.22914 11.9403 3.16503L13.1872 2.70789V0.492925L11.9403 0.0351514C11.7651 -0.0295361 11.5692 -0.00391115 11.4166 0.103511C11.264 0.210308 11.1731 0.384878 11.1731 0.57105V2.62855C11.1731 2.81531 11.264 2.99046 11.4166 3.0973Z" fill="white"/>
<path d="M2.96937 12.2646C2.34804 12.2646 1.84448 12.7682 1.84448 13.3895C1.84448 14.0096 2.34804 14.5126 2.96937 14.5126C3.59011 14.5126 4.09304 14.0096 4.09304 13.3895C4.093 12.7682 3.59007 12.2646 2.96937 12.2646ZM3.44909 13.8687C3.32519 13.992 3.15675 14.067 2.96937 14.0677C2.78077 14.067 2.61292 13.992 2.48839 13.8687C2.36569 13.7454 2.29062 13.5769 2.29003 13.3895C2.29065 13.2009 2.36573 13.0319 2.48839 12.9092C2.61292 12.7859 2.78073 12.7102 2.96937 12.7096C3.15675 12.7102 3.32519 12.7859 3.44909 12.9092C3.57237 13.0319 3.64745 13.2009 3.64745 13.3895C3.64745 13.5769 3.57237 13.7454 3.44909 13.8687Z" fill="white"/>
</svg>
