<svg width="20" height="20" viewBox="0 0 20 20" fill="none" xmlns="http://www.w3.org/2000/svg">
<path d="M10 20C15.5228 20 20 15.5228 20 10C20 4.47715 15.5228 0 10 0C4.47715 0 0 4.47715 0 10C0 15.5228 4.47715 20 10 20Z" fill="url(#paint0_linear_204_796)"/>
<path d="M13.7241 13.0577L14.1684 10.2352H11.3895V8.40444C11.3895 7.63209 11.777 6.8788 13.0216 6.8788H14.2858V4.47586C14.2858 4.47586 13.139 4.28516 12.0431 4.28516C9.7535 4.28516 8.25843 5.63726 8.25843 8.08401V10.2352H5.71436V13.0577H8.25843V19.8812C8.76914 19.9594 9.29164 19.9994 9.82393 19.9994C10.3562 19.9994 10.8788 19.9594 11.3895 19.8812V13.0577H13.7241Z" fill="white"/>
<defs>
<linearGradient id="paint0_linear_204_796" x1="10" y1="0" x2="10" y2="19.9407" gradientUnits="userSpaceOnUse">
<stop stop-color="#18ACFE"/>
<stop offset="1" stop-color="#0163E0"/>
</linearGradient>
</defs>
</svg>
