<svg width="20" height="20" viewBox="0 0 20 20" fill="none" xmlns="http://www.w3.org/2000/svg">
<path d="M10 20C15.5228 20 20 15.5228 20 10C20 4.47715 15.5228 0 10 0C4.47715 0 0 4.47715 0 10C0 15.5228 4.47715 20 10 20Z" fill="#C13584"/>
<path d="M10 5.0811C11.6021 5.0811 11.7919 5.0872 12.4245 5.11605C13.0095 5.14275 13.3272 5.2405 13.5387 5.32265C13.8187 5.4315 14.0186 5.5615 14.2285 5.77145C14.4385 5.98145 14.5685 6.1813 14.6774 6.46135C14.7595 6.6728 14.8573 6.9905 14.884 7.57545C14.9128 8.20815 14.9189 8.3979 14.9189 9.99995C14.9189 11.6021 14.9128 11.7918 14.884 12.4245C14.8573 13.0095 14.7595 13.3271 14.6774 13.5386C14.5685 13.8186 14.4385 14.0186 14.2286 14.2285C14.0186 14.4385 13.8187 14.5684 13.5387 14.6773C13.3272 14.7595 13.0095 14.8572 12.4245 14.8839C11.792 14.9127 11.6022 14.9189 10 14.9189C8.3978 14.9189 8.2081 14.9127 7.5755 14.8839C6.9905 14.8572 6.6728 14.7595 6.46135 14.6773C6.1813 14.5684 5.98145 14.4385 5.7715 14.2285C5.56155 14.0186 5.4315 13.8186 5.32265 13.5386C5.2405 13.3271 5.14275 13.0095 5.11605 12.4245C5.0872 11.7918 5.0811 11.6021 5.0811 9.99995C5.0811 8.3979 5.0872 8.20815 5.11605 7.57545C5.14275 6.9905 5.2405 6.6728 5.32265 6.46135C5.4315 6.1813 5.5615 5.98145 5.7715 5.7715C5.98145 5.5615 6.1813 5.4315 6.46135 5.32265C6.6728 5.2405 6.9905 5.14275 7.5755 5.11605C8.20815 5.0872 8.39795 5.0811 10 5.0811ZM10 4C8.3705 4 8.16615 4.0069 7.5262 4.0361C6.8876 4.06525 6.4514 4.16665 6.06975 4.315C5.6752 4.4683 5.3406 4.67345 5.00705 5.00705C4.67345 5.3406 4.4683 5.6752 4.315 6.06975C4.16665 6.4514 4.06525 6.88755 4.0361 7.5262C4.0069 8.16615 4 8.3705 4 9.99995C4 11.6295 4.0069 11.8338 4.0361 12.4738C4.06525 13.1124 4.16665 13.5485 4.315 13.9302C4.4683 14.3247 4.67345 14.6594 5.00705 14.993C5.3406 15.3265 5.6752 15.5316 6.06975 15.6849C6.4514 15.8333 6.8876 15.9347 7.5262 15.9639C8.16615 15.9931 8.3705 16 10 16C11.6295 16 11.8339 15.9931 12.4738 15.9639C13.1124 15.9347 13.5486 15.8333 13.9303 15.6849C14.3248 15.5316 14.6594 15.3265 14.993 14.993C15.3265 14.6594 15.5317 14.3247 15.685 13.9302C15.8334 13.5485 15.9348 13.1124 15.9639 12.4738C15.9931 11.8338 16 11.6295 16 9.99995C16 8.3705 15.9931 8.16615 15.9639 7.5262C15.9348 6.88755 15.8334 6.4514 15.685 6.06975C15.5317 5.6752 15.3265 5.3406 14.993 5.00705C14.6594 4.67345 14.3248 4.4683 13.9303 4.315C13.5486 4.16665 13.1124 4.06525 12.4738 4.0361C11.8339 4.0069 11.6295 4 10 4Z" fill="white"/>
<path d="M10.0029 6.92188C8.30128 6.92188 6.92188 8.30127 6.92188 10.0029C6.92188 11.7046 8.30128 13.084 10.0029 13.084C11.7046 13.084 13.084 11.7046 13.084 10.0029C13.084 8.30127 11.7046 6.92188 10.0029 6.92188ZM10.0029 12.0029C8.89838 12.0029 8.00293 11.1075 8.00293 10.0029C8.00293 8.89837 8.89838 8.00292 10.0029 8.00292C11.1075 8.00292 12.0029 8.89837 12.0029 10.0029C12.0029 11.1075 11.1075 12.0029 10.0029 12.0029Z" fill="white"/>
<path d="M13.9254 6.79873C13.9254 7.19609 13.603 7.5183 13.2054 7.5183C12.8077 7.5183 12.4854 7.19609 12.4854 6.79873C12.4854 6.40131 12.8077 6.0791 13.2054 6.0791C13.603 6.0791 13.9254 6.40131 13.9254 6.79873Z" fill="white"/>
</svg>
