<svg width="20" height="20" viewBox="0 0 20 20" fill="none" xmlns="http://www.w3.org/2000/svg">
<g clip-path="url(#clip0_205_820)">
<path d="M19.9409 13.864L18.4627 8.71894C18.3172 8.21238 18.0272 7.77707 17.6408 7.46629C17.4473 7.31062 17.2298 7.18637 16.9947 7.10055C16.7598 7.015 16.5073 6.96898 16.2486 6.96898H15.9262C15.652 6.60648 14.9582 5.72312 14.5077 5.44859C13.936 5.10019 12.0385 5.20601 11.423 4.79969C10.8072 4.39359 9.88117 4.33133 9.04316 4.26984C7.9791 4.19133 7.05496 4.95152 6.56941 5.00676C6.08387 5.06199 5.15582 5.40285 4.71129 6.09211C4.40918 6.35254 4.13223 6.77758 4.01539 6.96898H3.75172C3.49277 6.96898 3.24047 7.015 3.00531 7.10055C2.65258 7.22914 2.33949 7.44461 2.08809 7.72183C1.83688 7.99906 1.64645 8.3391 1.5373 8.71894L0.0591406 13.8637C0.0193359 14.0024 0 14.1439 0 14.2845C0.00015625 14.5777 0.0832422 14.8687 0.251406 15.1205V15.1207C0.375781 15.3067 0.541055 15.4607 0.734492 15.5682C0.927539 15.6757 1.14965 15.7363 1.37895 15.7361H18.6211C18.8504 15.7363 19.0725 15.6757 19.2655 15.5682C19.4589 15.4607 19.6243 15.3067 19.7486 15.1207V15.1205C19.9168 14.8684 19.9999 14.5777 20 14.2845C20 14.1439 19.9806 14.0026 19.9409 13.864ZM18.7036 14.422C18.6867 14.4472 18.6691 14.4612 18.6549 14.4691C18.6405 14.477 18.6308 14.4788 18.6211 14.4788H1.37891C1.36918 14.4788 1.35941 14.477 1.34508 14.4691C1.33113 14.4612 1.3134 14.4471 1.29648 14.422C1.27348 14.3882 1.25695 14.3373 1.25711 14.2845C1.25711 14.2595 1.26078 14.2344 1.26754 14.2108L2.7457 9.06598C2.82176 8.80176 2.96836 8.58953 3.1473 8.44574C3.23664 8.37398 3.33398 8.31902 3.43523 8.28223C3.53648 8.24543 3.64207 8.22617 3.75172 8.22617H16.2486C16.358 8.22617 16.4636 8.24539 16.5649 8.28223C16.7167 8.33746 16.8599 8.43328 16.9804 8.56621C17.1007 8.69914 17.1975 8.86781 17.2543 9.06598L18.7325 14.2108C18.7392 14.2344 18.7426 14.2596 18.7426 14.2845C18.743 14.3373 18.7265 14.3882 18.7035 14.422H18.7036Z" fill="white"/>
<path d="M14.0547 10.5592C14.0547 10.0589 13.649 9.65336 13.1487 9.65336C12.6712 9.65336 12.2808 10.0234 12.2462 10.4923C11.9321 10.7641 11.7796 10.6726 11.1673 10.6726C10.5252 10.6726 7.93698 10.7858 7.64948 10.4666C7.60292 10.0099 7.21726 9.65332 6.74839 9.65332C6.2478 9.65332 5.84253 10.0589 5.84253 10.5591C5.84253 10.9005 6.03108 11.1975 6.30991 11.3518C6.03108 11.5064 5.84253 11.8031 5.84253 12.1443C5.84253 12.6446 6.2478 13.0501 6.74839 13.0501C7.24843 13.0501 7.65409 12.6446 7.65409 12.1443C7.65409 12.1207 7.65222 12.0974 7.65042 12.0744C7.75925 11.9623 7.89921 11.8614 8.05026 11.8614C8.38987 11.8614 11.1673 11.8614 11.1673 11.8614C11.1673 11.8614 11.507 11.8614 11.8466 11.8614C11.9978 11.8614 12.1376 11.9623 12.2465 12.0744C12.2447 12.0974 12.2428 12.1207 12.2428 12.1443C12.2428 12.6446 12.6483 13.0501 13.1487 13.0501C13.649 13.0501 14.0546 12.6446 14.0546 12.1443C14.0546 11.8031 13.8658 11.5064 13.587 11.3518C13.8659 11.1975 14.0547 10.9005 14.0547 10.5592Z" fill="white"/>
</g>
<defs>
<clipPath id="clip0_205_820">
<rect width="20" height="20" fill="white"/>
</clipPath>
</defs>
</svg>
