<svg width="20" height="20" viewBox="0 0 20 20" fill="none" xmlns="http://www.w3.org/2000/svg">
<path d="M20 10C20 4.47715 15.5228 0 10 0C4.47715 0 0 4.47715 0 10C0 15.5228 4.47715 20 10 20C15.5228 20 20 15.5228 20 10Z" fill="#EDEDED"/>
<path d="M14.6925 2.30859H5.30786C3.65101 2.30859 2.30786 3.65174 2.30786 5.30859V14.6932C2.30786 16.3501 3.65101 17.6932 5.30786 17.6932H14.6925C16.3493 17.6932 17.6925 16.3501 17.6925 14.6932V5.30859C17.6925 3.65174 16.3493 2.30859 14.6925 2.30859Z" fill="#EDEDED" stroke="#EDEDED" stroke-width="0.00615385"/>
<path d="M9.42915 8.76818C8.71886 8.67015 7.99558 8.79164 7.3563 9.11638C6.71702 9.44111 6.19233 9.95355 5.85258 10.585C5.51283 11.2164 5.37427 11.9366 5.45549 12.649C5.53671 13.3614 5.83383 14.032 6.30699 14.5707C6.78014 15.1095 7.40672 15.4907 8.10269 15.6632C8.79865 15.8357 9.53073 15.7912 10.2007 15.5358C10.8707 15.2804 11.4466 14.8263 11.8511 14.2343C12.2557 13.6423 12.4695 12.9407 12.464 12.2237V8.37755C13.235 8.92909 14.1603 9.2235 15.1082 9.2189V7.32587C14.4069 7.32587 13.7344 7.04728 13.2385 6.55139C12.7426 6.0555 12.464 5.38293 12.464 4.68164H10.5409V12.2538C10.5426 12.5972 10.4352 12.9322 10.2343 13.2107C10.0333 13.4892 9.74925 13.6968 9.42287 13.8036C9.09648 13.9103 8.74464 13.9108 8.41797 13.8049C8.0913 13.699 7.80665 13.4922 7.60499 13.2142C7.40333 12.9363 7.29506 12.6015 7.29576 12.2581C7.29646 11.9147 7.4061 11.5804 7.60889 11.3032C7.81168 11.0261 8.09717 10.8204 8.42427 10.7159C8.75137 10.6113 9.10321 10.6132 9.42915 10.7213V8.76818Z" fill="#FF0055" stroke="#EDEDED" stroke-width="0.00615385"/>
<path d="M8.88863 8.31798C8.17833 8.21995 7.45505 8.34145 6.81577 8.66618C6.1765 8.99091 5.6518 9.50336 5.31205 10.1348C4.9723 10.7662 4.83374 11.4864 4.91496 12.1988C4.99619 12.9112 5.2933 13.5818 5.76646 14.1205C6.23962 14.6593 6.8662 15.0405 7.56216 15.213C8.25813 15.3855 8.9902 15.341 9.6602 15.0856C10.3302 14.8302 10.9061 14.3761 11.3106 13.7841C11.7152 13.1921 11.929 12.4905 11.9235 11.7735V7.92736C12.6945 8.4789 13.6198 8.7733 14.5677 8.7687V6.87568C13.8664 6.87568 13.1939 6.59709 12.698 6.1012C12.2021 5.60531 11.9235 4.93274 11.9235 4.23145H10.0004V11.8036C10.002 12.147 9.89465 12.482 9.69373 12.7605C9.49282 13.039 9.20873 13.2466 8.88234 13.3534C8.55596 13.4602 8.20411 13.4606 7.87744 13.3547C7.55077 13.2488 7.26612 13.042 7.06446 12.764C6.86281 12.4861 6.75454 12.1513 6.75524 11.8079C6.75594 11.4645 6.86557 11.1302 7.06836 10.853C7.27115 10.5759 7.55664 10.3702 7.88374 10.2657C8.21084 10.1611 8.56268 10.163 8.88863 10.2711V8.31798Z" fill="#00EEEE" stroke="#EDEDED" stroke-width="0.00615385"/>
</svg>
