<svg width="20" height="20" viewBox="0 0 20 20" fill="none" xmlns="http://www.w3.org/2000/svg">
<g clip-path="url(#clip0_210_2430)">
<path fill-rule="evenodd" clip-rule="evenodd" d="M9.9971 0C4.48428 0 0 4.48553 0 9.99991C0 12.1868 0.705268 14.215 1.90417 15.8612L0.658162 19.5766L4.50185 18.3481C6.08275 19.3946 7.96934 20 10.0029 20C15.5157 20 20 15.5143 20 10.0001C20 4.48571 15.5157 0.000165304 10.0029 0.000165304L9.9971 0ZM7.20535 5.07951C7.01145 4.61511 6.86449 4.59753 6.57074 4.58558C6.47072 4.57978 6.35925 4.57397 6.23568 4.57397C5.85352 4.57397 5.45394 4.68563 5.21294 4.93252C4.91918 5.23233 4.19034 5.93182 4.19034 7.36633C4.19034 8.80084 5.23649 10.1882 5.37748 10.3823C5.52444 10.5761 7.41699 13.5626 10.3555 14.7798C12.6535 15.7321 13.3354 15.6439 13.8584 15.5322C14.6224 15.3676 15.5804 14.803 15.8214 14.1213C16.0624 13.4392 16.0624 12.8572 15.9918 12.7337C15.9213 12.6103 15.7272 12.5399 15.4335 12.3928C15.1397 12.2458 13.7114 11.5403 13.441 11.4462C13.1765 11.3463 12.9239 11.3817 12.7242 11.6639C12.442 12.0578 12.1658 12.4576 11.9424 12.6985C11.7661 12.8867 11.478 12.9102 11.2371 12.8102C10.9139 12.6751 10.0089 12.3574 8.89208 11.3639C8.02807 10.5939 7.4404 9.63573 7.27005 9.3477C7.09954 9.05386 7.25245 8.88313 7.38747 8.72452C7.53443 8.54218 7.67543 8.41293 7.82239 8.24237C7.96935 8.07197 8.05163 7.9837 8.14568 7.78378C8.24569 7.58982 8.17502 7.38989 8.10453 7.24289C8.03403 7.09589 7.44636 5.66138 7.20535 5.07951Z" fill="#67C15E"/>
</g>
<defs>
<clipPath id="clip0_210_2430">
<rect width="20" height="20" fill="white"/>
</clipPath>
</defs>
</svg>
